<svg width="515" height="200" viewBox="0 0 515 200" fill="none" xmlns="http://www.w3.org/2000/svg">
<circle cx="68.5" cy="73.5" r="3.5" fill="white"/>
<rect x="64" y="124" width="39" height="12" rx="1" transform="rotate(90 64 124)" fill="#9B6134" stroke="black" stroke-width="2"/>
<path d="M96 52C115.057 52 144.495 55.9685 157.861 57.9277C161.349 58.4389 163.867 61.5018 163.733 65.04L162.291 103.264C162.149 107.024 159.059 110 155.296 110H40.5518C36.9583 110 33.9694 107.284 33.5918 103.748L33.5635 103.403L31.4004 65.9043C31.199 62.4109 33.6008 59.3255 37.0273 58.7148C49.6976 56.4571 77.1173 52 96 52Z" fill="#FFDF50" stroke="black" stroke-width="2"/>
<ellipse cx="68.5" cy="89.5" rx="11.5" ry="4.5" fill="#FEBBD0"/>
<ellipse cx="126.5" cy="89.5" rx="11.5" ry="4.5" fill="#FEBBD0"/>
<circle cx="71.5" cy="76.5" r="11.5" fill="black"/>
<circle cx="122.5" cy="76.5" r="11.5" fill="black"/>
<circle cx="119.5" cy="73.5" r="3.5" fill="white"/>
<rect x="145" y="124" width="39" height="12" rx="1" transform="rotate(90 145 124)" fill="#9B6134" stroke="black" stroke-width="2"/>
<rect x="19" y="112" width="162" height="12" rx="1" fill="#9B6134" stroke="black" stroke-width="2"/>
<path d="M96.4998 106C99.5818 105.918 101.611 105.448 104 103.5C105.807 102.026 107.042 100.786 107.5 98.4997C108 95.9997 107.7 94.5457 106 93.4997C99.5 89.4997 90.9998 88.9997 84.4998 94.9997C83.3218 96.0871 83.4106 97.5414 84.0766 98.9997C85.2151 101.492 86.549 103.274 89 104.5C91.9998 106 93.2416 106.086 96.4998 106Z" fill="#B71422"/>
<path d="M104 103.5C104 103.5 100.142 106 96 106C91.8579 106 91.5 105.5 89.5 104.5C89.5 100.358 92.8579 96.9997 97 96.9997C101.142 96.9997 103.5 100.5 104 103.5Z" fill="#FF6164"/>
<path d="M104 103.5C101.611 105.448 99.5818 105.918 96.4998 106C93.2416 106.086 91.9998 106 89 104.5C86.549 103.274 85.2151 101.492 84.0766 98.9997C83.4106 97.5414 83.3218 96.0871 84.4998 94.9997C90.9998 88.9997 99.5 89.4997 106 93.4997C107.7 94.5457 108 95.9997 107.5 98.4997C107.042 100.786 105.807 102.026 104 103.5ZM104 103.5C104 103.5 100.142 106 96 106C91.8579 106 91.5 105.5 89.5 104.5C89.5 100.358 92.8579 96.9997 97 96.9997C101.142 96.9997 103.5 100.5 104 103.5Z" stroke="black" stroke-width="2"/>
<path d="M224.455 135V65.1818H232.5V90.9545H233.182C233.773 90.0455 234.591 88.8864 235.636 87.4773C236.705 86.0455 238.227 84.7727 240.205 83.6591C242.205 82.5227 244.909 81.9545 248.318 81.9545C252.727 81.9545 256.614 83.0568 259.977 85.2614C263.341 87.4659 265.966 90.5909 267.852 94.6364C269.739 98.6818 270.682 103.455 270.682 108.955C270.682 114.5 269.739 119.307 267.852 123.375C265.966 127.42 263.352 130.557 260.011 132.784C256.67 134.989 252.818 136.091 248.455 136.091C245.091 136.091 242.398 135.534 240.375 134.42C238.352 133.284 236.795 132 235.705 130.568C234.614 129.114 233.773 127.909 233.182 126.955H232.227V135H224.455ZM232.364 108.818C232.364 112.773 232.943 116.261 234.102 119.284C235.261 122.284 236.955 124.636 239.182 126.341C241.409 128.023 244.136 128.864 247.364 128.864C250.727 128.864 253.534 127.977 255.784 126.205C258.057 124.409 259.761 122 260.898 118.977C262.057 115.932 262.636 112.545 262.636 108.818C262.636 105.136 262.068 101.818 260.932 98.8636C259.818 95.8864 258.125 93.5341 255.852 91.8068C253.602 90.0568 250.773 89.1818 247.364 89.1818C244.091 89.1818 241.341 90.0114 239.114 91.6705C236.886 93.3068 235.205 95.6023 234.068 98.5568C232.932 101.489 232.364 104.909 232.364 108.818ZM315.989 113.591V82.6364H324.034V135H315.989V126.136H315.443C314.216 128.795 312.307 131.057 309.716 132.92C307.125 134.761 303.852 135.682 299.898 135.682C296.625 135.682 293.716 134.966 291.17 133.534C288.625 132.08 286.625 129.898 285.17 126.989C283.716 124.057 282.989 120.364 282.989 115.909V82.6364H291.034V115.364C291.034 119.182 292.102 122.227 294.239 124.5C296.398 126.773 299.148 127.909 302.489 127.909C304.489 127.909 306.523 127.398 308.591 126.375C310.682 125.352 312.432 123.784 313.841 121.67C315.273 119.557 315.989 116.864 315.989 113.591ZM361.543 82.6364V89.4545H334.406V82.6364H361.543ZM342.315 70.0909H350.361V120C350.361 122.273 350.69 123.977 351.349 125.114C352.031 126.227 352.895 126.977 353.94 127.364C355.009 127.727 356.134 127.909 357.315 127.909C358.202 127.909 358.929 127.864 359.497 127.773C360.065 127.659 360.52 127.568 360.861 127.5L362.497 134.727C361.952 134.932 361.19 135.136 360.213 135.341C359.236 135.568 357.997 135.682 356.497 135.682C354.224 135.682 351.997 135.193 349.815 134.216C347.656 133.239 345.861 131.75 344.429 129.75C343.02 127.75 342.315 125.227 342.315 122.182V70.0909ZM396.418 82.6364V89.4545H369.281V82.6364H396.418ZM377.19 70.0909H385.236V120C385.236 122.273 385.565 123.977 386.224 125.114C386.906 126.227 387.77 126.977 388.815 127.364C389.884 127.727 391.009 127.909 392.19 127.909C393.077 127.909 393.804 127.864 394.372 127.773C394.94 127.659 395.395 127.568 395.736 127.5L397.372 134.727C396.827 134.932 396.065 135.136 395.088 135.341C394.111 135.568 392.872 135.682 391.372 135.682C389.099 135.682 386.872 135.193 384.69 134.216C382.531 133.239 380.736 131.75 379.304 129.75C377.895 127.75 377.19 125.227 377.19 122.182V70.0909ZM429.912 136.091C424.866 136.091 420.514 134.977 416.855 132.75C413.219 130.5 410.412 127.364 408.435 123.341C406.48 119.295 405.503 114.591 405.503 109.227C405.503 103.864 406.48 99.1364 408.435 95.0455C410.412 90.9318 413.162 87.7273 416.685 85.4318C420.23 83.1136 424.366 81.9545 429.094 81.9545C431.821 81.9545 434.514 82.4091 437.173 83.3182C439.832 84.2273 442.253 85.7045 444.435 87.75C446.616 89.7727 448.355 92.4545 449.651 95.7955C450.946 99.1364 451.594 103.25 451.594 108.136V111.545H411.23V104.591H443.412C443.412 101.636 442.821 99 441.639 96.6818C440.48 94.3636 438.821 92.5341 436.662 91.1932C434.526 89.8523 432.003 89.1818 429.094 89.1818C425.889 89.1818 423.116 89.9773 420.776 91.5682C418.457 93.1364 416.673 95.1818 415.423 97.7045C414.173 100.227 413.548 102.932 413.548 105.818V110.455C413.548 114.409 414.23 117.761 415.594 120.511C416.98 123.239 418.901 125.318 421.355 126.75C423.81 128.159 426.662 128.864 429.912 128.864C432.026 128.864 433.935 128.568 435.639 127.977C437.366 127.364 438.855 126.455 440.105 125.25C441.355 124.023 442.321 122.5 443.003 120.682L450.776 122.864C449.957 125.5 448.582 127.818 446.651 129.818C444.719 131.795 442.332 133.341 439.491 134.455C436.651 135.545 433.457 136.091 429.912 136.091ZM463.832 135V82.6364H471.605V90.5455H472.151C473.105 87.9545 474.832 85.8523 477.332 84.2386C479.832 82.625 482.651 81.8182 485.787 81.8182C486.378 81.8182 487.116 81.8295 488.003 81.8523C488.889 81.875 489.56 81.9091 490.014 81.9545V90.1364C489.741 90.0682 489.116 89.9659 488.139 89.8295C487.185 89.6705 486.173 89.5909 485.105 89.5909C482.56 89.5909 480.287 90.125 478.287 91.1932C476.31 92.2386 474.741 93.6932 473.582 95.5568C472.446 97.3977 471.878 99.5 471.878 101.864V135H463.832Z" fill="black"/>
</svg>
