<svg width="881" height="282" viewBox="0 0 881 282" fill="none" xmlns="http://www.w3.org/2000/svg">
<g clip-path="url(#clip0_1621_372571)">
<path d="M307.75 214.471C307.65 214.251 307.47 213.661 307.47 212.191V81.6309H261.67V83.6109L275.28 93.4109C276.27 94.1609 276.65 94.7109 276.79 95.0309C276.92 95.3109 277.13 96.0409 277.13 97.7109V212.191C277.13 213.661 276.92 214.321 276.8 214.581C276.65 214.891 276.27 215.411 275.3 216.151L261.66 225.971V228.071H323.04V225.971L309.44 216.181C308.15 215.161 307.82 214.651 307.74 214.471H307.75Z" fill="#FF744F"/>
<path d="M431.98 208.171H429.72L429.47 208.931C428.45 212.011 426.68 213.451 423.89 213.451C422.24 213.451 420.96 212.961 419.98 211.951C418.14 210.041 417.34 206.261 417.6 200.691L418.91 165.611V161.621C418.91 144.801 415.29 132.571 408.11 125.251C401.54 119.041 390.76 115.891 376.08 115.891C361.4 115.891 348.26 118.531 334.83 123.731L333.79 124.131L346.35 155.831H348.24L364.13 124.151C364.85 122.651 365.38 122.291 365.57 122.221C365.82 122.121 366.74 121.881 369.88 121.881C376.37 121.881 381.1 124.141 384.32 128.781C387.59 133.491 389.24 140.011 389.24 148.151L388.84 170.531C383.01 166.821 375.5 164.941 366.5 164.941C360.13 164.941 354.06 166.171 348.46 168.591C342.81 171.031 338.04 174.931 334.27 180.171C330.48 185.441 328.56 191.751 328.56 198.921C328.56 208.401 331.59 215.991 337.57 221.501C343.53 226.991 350.88 229.771 359.41 229.771C366.74 229.771 373.29 227.661 378.87 223.511C383.2 220.291 386.57 216.121 388.95 211.061C389.72 216.271 391.7 220.481 394.84 223.621C398.92 227.701 404.12 229.771 410.28 229.771C415.06 229.771 419.24 228.601 422.72 226.301C426.18 224.001 428.79 220.961 430.47 217.261C431.78 214.371 432.32 211.641 432.09 209.161L432 208.161L431.98 208.171ZM388.35 203.881C386.44 206.831 384.11 209.191 381.4 210.871C378.65 212.581 375.76 213.451 372.79 213.451C368.59 213.451 365.24 211.901 362.53 208.721C359.81 205.531 358.44 201.111 358.44 195.581C358.44 189.271 360.29 183.951 363.94 179.751C367.6 175.551 372.53 173.501 379 173.501C382.42 173.501 385.7 174.011 388.77 175.011L388.35 203.871V203.881Z" fill="#FF744F"/>
<path d="M548.4 214.5C548.28 214.26 548.08 213.65 548.08 212.2C548.37 188.68 548.52 171.81 548.52 162.06C548.52 131.43 537.19 115.9 514.84 115.9C499.07 115.9 487.97 123.2 481.75 137.62V117.62H436.06V119.78L449.67 131.14C450.7 131.93 451.03 132.42 451.13 132.65C451.22 132.85 451.42 133.5 451.42 135.33V212.19C451.42 213.61 451.26 214.3 451.12 214.63C451.02 214.87 450.7 215.39 449.7 216.15L436.06 225.97V228.07H497.44V225.97L483.84 216.18C482.58 215.19 482.19 214.63 482.07 214.39C481.95 214.16 481.75 213.56 481.75 212.19V145.98C486.86 137.45 493.16 133.31 501 133.31C507.19 133.31 511.48 135.98 514.1 141.46C516.81 147.14 518.19 156.14 518.19 168.21C518.19 171.99 518.08 180.33 517.86 192.99C517.53 212.08 517.53 212.33 517.53 212.41C517.53 213.84 516.79 215.07 515.24 216.17L502.28 225.99V228.07H563.66V225.97L550.05 216.18C548.89 215.28 548.52 214.75 548.4 214.51V214.5Z" fill="#FF744F"/>
<path d="M658.36 190.061C651.82 204.351 642.42 211.301 629.64 211.301C620.97 211.301 613.74 207.601 608.14 200.311C602.47 192.921 599.6 181.181 599.6 165.401C599.6 151.151 601.82 140.131 606.2 132.641C610.53 125.251 616.73 121.661 625.17 121.661H627.46C628.66 121.661 629.17 121.901 629.36 122.041C629.64 122.241 630.1 122.731 630.68 123.791L645.89 159.171H647.86L660.56 122.471L659.52 122.101C647.83 117.981 635.98 115.891 624.29 115.891C618.57 115.891 613.02 116.521 607.8 117.751C602.56 118.991 597.41 121.101 592.51 124.021C587.6 126.951 583.28 130.641 579.7 134.991C576.11 139.351 573.2 144.931 571.06 151.581C568.93 158.201 567.85 165.711 567.85 173.911C567.85 183.131 569.23 191.491 571.95 198.761C574.68 206.071 578.46 212.021 583.17 216.431C587.87 220.821 593.15 224.181 598.89 226.411C604.62 228.641 610.79 229.771 617.22 229.771C629.44 229.771 639.36 226.241 646.69 219.281C653.98 212.361 658.77 202.741 660.9 190.701L661.13 189.411H658.65L658.35 190.061H658.36Z" fill="#FF744F"/>
<path d="M765.75 188.14C758.91 203.87 747.91 211.51 732.14 211.51C723.1 211.51 715.61 207.88 709.87 200.72C704.07 193.48 701.13 182.83 701.13 169.07V166.72H767.99L768.11 165.75C768.4 163.41 768.55 161.48 768.55 160.01C768.55 152.34 767.24 145.5 764.64 139.68C762.03 133.82 758.43 129.14 753.94 125.77C749.5 122.44 744.56 119.93 739.27 118.32C733.99 116.71 728.29 115.9 722.33 115.9C717.1 115.9 711.99 116.55 707.12 117.82C702.23 119.1 697.47 121.24 692.96 124.16C688.44 127.09 684.47 130.77 681.14 135.09C677.8 139.42 675.11 144.96 673.11 151.56C671.13 158.14 670.12 165.59 670.12 173.7C670.12 182.99 671.54 191.39 674.33 198.67C677.14 205.99 681.01 211.95 685.83 216.39C690.64 220.82 696.09 224.19 702.04 226.42C707.99 228.65 714.44 229.78 721.22 229.78C733.85 229.78 744.32 226.32 752.34 219.49C760.34 212.67 765.71 202.34 768.28 188.78L768.53 187.47H766.02L765.73 188.14H765.75ZM721.9 121.66C727.66 121.66 731.84 124.42 734.68 130.1C737.6 135.96 739.08 145.15 739.08 157.42C739.08 158.58 739.04 159.62 738.97 160.52H701.16C701.74 147.8 703.82 138.03 707.36 131.47C710.92 124.86 715.68 121.65 721.9 121.65V121.66Z" fill="#FF744F"/>
<path d="M842.13 117.62V119.58L855.69 140.74C856.7 142.41 856.88 143.19 856.89 143.51C856.91 143.85 856.82 144.74 856.04 146.88L835.86 197.57L812.15 134.94C811.55 133.31 811.54 132.64 811.56 132.42C811.59 132.19 811.75 131.68 812.59 130.77L822.68 119.68V117.61H770.34V119.58L776.05 128.34C777.97 131.51 779.3 134 780 135.72L819.92 236.63C814.68 248.56 810.06 257.2 806.16 262.32C805.01 263.94 804.46 264.01 804.46 264.01C803.93 264.01 803.19 263.4 802.4 262.29L785.07 239.98H783.19L774.85 277.52L775.68 277.89C779.08 279.38 782.6 280.14 786.15 280.14C791.86 280.14 796.94 278.74 801.24 275.97C805.49 273.24 809.64 268.77 813.55 262.7C819.44 253.56 824.53 243.66 828.68 233.29L862.12 148.35C863.39 145.2 865.01 142.15 866.91 139.29L880.5 119.6V117.62H842.11H842.13Z" fill="#FF744F"/>
<path d="M197.48 150.441L191.78 145.641V144.061C191.78 103.431 159.7 69.6907 119.3 68.5107H118.15L125.75 59.9307C136.49 47.8107 135.37 30.5507 125.94 17.3807C118.02 6.32066 94.31 -5.44934 70.03 4.15066C56.75 9.39066 44.92 20.3607 31.65 42.9307C21.57 60.1007 0.77003 50.2607 0.77003 50.2607C0.77003 50.2607 0.0400305 64.8307 9.98003 74.6507C22.76 87.2807 50.98 99.6807 86.37 60.1907C92.06 53.8407 99.83 53.8807 106.42 60.1907L114.23 68.5507C74.33 70.0607 42.44 102.851 42.44 143.121V145.641L36.74 150.441C29.06 156.921 24.62 166.461 24.62 176.511C24.62 186.561 29.45 196.911 37.72 203.371L42.44 207.051V235.501L84.18 269.471C103.36 285.071 130.86 285.071 150.03 269.471L191.78 235.501V207.061L196.49 203.371C204.77 196.911 209.6 187.001 209.6 176.511C209.6 166.021 205.16 156.921 197.48 150.441ZM176.71 207.671L140.11 237.311C126.7 248.171 107.52 248.171 94.11 237.311L57.51 207.671C47.98 199.951 42.44 188.341 42.44 176.071C42.44 169.941 43.83 163.971 46.4 158.571C48.98 153.171 52.75 148.341 57.51 144.481L94.11 114.841C107.52 103.991 126.69 103.991 140.1 114.841L176.71 144.481C186.24 152.201 191.78 163.811 191.78 176.071C191.78 188.331 186.24 199.951 176.71 207.671Z" fill="#FF744F"/>
<path d="M67.0901 153.381C62.1701 153.381 58.1801 157.371 58.1801 162.291V189.871C58.1801 194.791 62.1701 198.781 67.0901 198.781C72.0101 198.781 76.0001 194.791 76.0001 189.871V162.291C76.0001 157.371 72.0101 153.381 67.0901 153.381Z" fill="#FF744F"/>
<path d="M100.21 129.511C95.29 129.511 91.3 133.501 91.3 138.421V213.731C91.3 218.651 95.29 222.641 100.21 222.641C105.13 222.641 109.12 218.651 109.12 213.731V138.421C109.12 133.501 105.13 129.511 100.21 129.511Z" fill="#FF744F"/>
<path d="M176.04 162.291C176.04 157.37 172.051 153.381 167.13 153.381C162.209 153.381 158.22 157.37 158.22 162.291V189.881C158.22 194.802 162.209 198.791 167.13 198.791C172.051 198.791 176.04 194.802 176.04 189.881V162.291Z" fill="#FF744F"/>
<path d="M142.91 138.421C142.91 133.5 138.921 129.511 134 129.511C129.079 129.511 125.09 133.5 125.09 138.421V213.731C125.09 218.652 129.079 222.641 134 222.641C138.921 222.641 142.91 218.652 142.91 213.731V138.421Z" fill="#FF744F"/>
</g>
<defs>
<clipPath id="clip0_1621_372571">
<rect width="879.76" height="280.56" fill="white" transform="translate(0.76001 0.610352)"/>
</clipPath>
</defs>
</svg>
